<svg width="34" height="37" viewBox="0 0 34 37" fill="none" xmlns="http://www.w3.org/2000/svg">
<path id="Vector" d="M32.13 13.0399C31.29 10.9999 30.07 9.17993 28.51 7.61993C26.95 6.05993 25.12 4.83993 23.09 3.99993C21.06 3.15993 18.91 2.72993 16.71 2.72993C15.4 2.72993 14.09 2.88993 12.82 3.18993C11.54 3.49993 10.3 3.94993 9.15 4.53993C8.85 4.67993 8.57 4.83993 8.29 4.99993L8.48 2.72993C8.53 2.05993 8.32 1.40993 7.88 0.899933C7.44 0.379933 6.83 0.069933 6.15 0.00993305H6.12C5.46 -0.040067 4.81 0.169933 4.3 0.599933C3.79 1.03993 3.47 1.65993 3.41 2.32993L2.7 10.9099C2.64 11.5899 2.86 12.2399 3.29 12.7599C3.73 13.2799 4.34 13.5899 5.02 13.6499L13.62 14.3599C14.29 14.4099 14.94 14.1999 15.45 13.7599C15.97 13.3199 16.28 12.7099 16.34 12.0299C16.39 11.3499 16.18 10.6999 15.75 10.1799C15.31 9.65993 14.7 9.33993 14.02 9.28993L11.4 9.07993C11.41 9.06993 11.42 9.06993 11.43 9.05993C12.25 8.63993 13.1 8.32993 13.98 8.11993C14.86 7.90993 15.78 7.79993 16.7 7.79993C18.24 7.79993 19.74 8.09993 21.14 8.67993C22.55 9.25993 23.82 10.1099 24.91 11.1999C26 12.2899 26.85 13.5599 27.43 14.9699C28.01 16.3799 28.31 17.8699 28.31 19.4099C28.31 20.9499 28.01 22.4499 27.43 23.8499C26.84 25.2599 26 26.5299 24.91 27.6199C22.72 29.8099 19.8 31.0199 16.7 31.0199C15.16 31.0199 13.66 30.7199 12.26 30.1399C10.85 29.5599 9.58 28.7099 8.49 27.6199C7.4 26.5299 6.55 25.2599 5.97 23.8499C5.39 22.4399 5.09 20.9499 5.09 19.4099C5.09 18.7299 4.83 18.0999 4.35 17.6099C3.87 17.1299 3.23 16.8599 2.55 16.8599C1.87 16.8599 1.23 17.1199 0.75 17.5999L0.7 17.6699C0.25 18.1499 0 18.7699 0 19.4199C0 21.6299 0.43 23.7799 1.27 25.7999C2.11 27.8399 3.33 29.6599 4.89 31.2199C6.45 32.7799 8.27 33.9999 10.31 34.8399C12.34 35.6799 14.49 36.1099 16.69 36.1099C18.9 36.1099 21.04 35.6799 23.07 34.8399C25.11 33.9999 26.93 32.7799 28.49 31.2199C30.05 29.6599 31.27 27.8299 32.11 25.7999C32.95 23.7699 33.38 21.6199 33.38 19.4199C33.4 17.2199 32.97 15.0699 32.13 13.0399Z" fill="#306AD5"/>
</svg>
