<?xml version="1.0" encoding="utf-8"?>
<!-- Generator: Adobe Illustrator 28.1.0, SVG Export Plug-In . SVG Version: 6.00 Build 0)  -->
<svg version="1.1" id="Layer_1" xmlns="http://www.w3.org/2000/svg" xmlns:xlink="http://www.w3.org/1999/xlink" x="0px" y="0px"
	 viewBox="0 0 73 73" style="enable-background:new 0 0 73 73;" xml:space="preserve">
<style type="text/css">
	.st0{fill:#FFFFFF;}
</style>
<g id="black_line">
	<g>
		<g>
			<path class="st0" d="M36.5,72C16.9,72,1,56.1,1,36.5S16.9,1,36.5,1S72,16.9,72,36.5S56.1,72,36.5,72z M36.5,3.9
				c-18,0-32.6,14.6-32.6,32.6s14.6,32.6,32.6,32.6s32.6-14.6,32.6-32.6S54.5,3.9,36.5,3.9z"/>
		</g>
		<path class="st0" d="M54,34.2L37.6,19.1c-0.7-0.6-1.6-0.6-2.3,0L19,34.2c-0.4,0.3-0.5,0.8-0.5,1.2v17.3c0,0.9,0.8,1.7,1.7,1.7
			h11.4c0.9,0,1.7-0.8,1.7-1.7v-7.9c0-1.8,1.5-3.3,3.3-3.3c1.8,0,3.3,1.5,3.3,3.3v7.9c0,0.9,0.8,1.7,1.7,1.7h11.4
			c0.9,0,1.7-0.8,1.7-1.7V35.4C54.6,35,54.4,34.5,54,34.2z M51.2,51h-8v-6.2c0-3.7-3-6.7-6.7-6.7s-6.7,3-6.7,6.7V51h-8V36.2
			l14.7-13.6l14.7,13.6V51z"/>
	</g>
</g>
</svg>
