<?xml version="1.0" encoding="utf-8"?>
<!-- Generator: Adobe Illustrator 28.1.0, SVG Export Plug-In . SVG Version: 6.00 Build 0)  -->
<svg version="1.1" id="Layer_1" xmlns="http://www.w3.org/2000/svg" xmlns:xlink="http://www.w3.org/1999/xlink" x="0px" y="0px"
	 viewBox="0 0 71 50" style="enable-background:new 0 0 71 50;" xml:space="preserve">
<style type="text/css">
	.st0{fill:#FFFFFF;}
</style>
<path class="st0" d="M40.8,14.5H28.5V2.2c0-0.7-0.4-1.3-1-1.6c-0.6-0.3-1.4-0.2-1.9,0.3L1.2,23.7C0.8,24,0.6,24.5,0.6,25
	s0.2,1,0.6,1.3l24.5,22.8c0.5,0.5,1.2,0.6,1.9,0.3s1-0.9,1-1.6V35.5h8.7c14.7,0,23.9,4.1,30,13.3c0.3,0.5,0.9,0.8,1.4,0.8
	c0.2,0,0.3,0,0.5-0.1c0.7-0.2,1.2-0.9,1.2-1.7C70.5,32.4,62.7,14.5,40.8,14.5z M37.3,32.1H26.7c-1,0-1.8,0.8-1.8,1.8v10.2L4.4,25
	L24.9,5.9v10.2c0,1,0.8,1.8,1.8,1.8h14.2c17.1,0,24.6,12.3,26.2,24.8C60.3,35.4,50.9,32.1,37.3,32.1z"/>
</svg>
