<?xml version="1.0" encoding="utf-8"?>
<!-- Generator: Adobe Illustrator 27.9.0, SVG Export Plug-In . SVG Version: 6.00 Build 0)  -->
<svg version="1.1" id="Layer_1" xmlns="http://www.w3.org/2000/svg" xmlns:xlink="http://www.w3.org/1999/xlink" x="0px" y="0px"
	 viewBox="0 0 33.39 36.12" style="enable-background:new 0 0 33.39 36.12;" xml:space="preserve">
<style type="text/css">
	.st0{fill:#306AD5;}
</style>
<path class="st0" d="M32.13,13.04c-0.84-2.04-2.06-3.86-3.62-5.42c-1.56-1.56-3.39-2.78-5.42-3.62c-2.03-0.84-4.18-1.27-6.38-1.27
	c-1.31,0-2.62,0.16-3.89,0.46c-1.28,0.31-2.52,0.76-3.67,1.35C8.85,4.68,8.57,4.84,8.29,5l0.19-2.27c0.05-0.67-0.16-1.32-0.6-1.83
	C7.44,0.38,6.83,0.07,6.15,0.01l-0.03,0C5.46-0.04,4.81,0.17,4.3,0.6C3.79,1.04,3.47,1.66,3.41,2.33L2.7,10.91
	c-0.06,0.68,0.16,1.33,0.59,1.85c0.44,0.52,1.05,0.83,1.73,0.89l8.6,0.71c0.67,0.05,1.32-0.16,1.83-0.6
	c0.52-0.44,0.83-1.05,0.89-1.73c0.05-0.68-0.16-1.33-0.59-1.85c-0.44-0.52-1.05-0.84-1.73-0.89L11.4,9.08
	c0.01-0.01,0.02-0.01,0.03-0.02c0.82-0.42,1.67-0.73,2.55-0.94c0.88-0.21,1.8-0.32,2.72-0.32c1.54,0,3.04,0.3,4.44,0.88
	c1.41,0.58,2.68,1.43,3.77,2.52c1.09,1.09,1.94,2.36,2.52,3.77c0.58,1.41,0.88,2.9,0.88,4.44s-0.3,3.04-0.88,4.44
	c-0.59,1.41-1.43,2.68-2.52,3.77c-2.19,2.19-5.11,3.4-8.21,3.4c-1.54,0-3.04-0.3-4.44-0.88c-1.41-0.58-2.68-1.43-3.77-2.52
	c-1.09-1.09-1.94-2.36-2.52-3.77c-0.58-1.41-0.88-2.9-0.88-4.44c0-0.68-0.26-1.31-0.74-1.8c-0.48-0.48-1.12-0.75-1.8-0.75
	c-0.68,0-1.32,0.26-1.8,0.74L0.7,17.67C0.25,18.15,0,18.77,0,19.42c0,2.21,0.43,4.36,1.27,6.38c0.84,2.04,2.06,3.86,3.62,5.42
	c1.56,1.56,3.38,2.78,5.42,3.62c2.03,0.84,4.18,1.27,6.38,1.27c2.21,0,4.35-0.43,6.38-1.27c2.04-0.84,3.86-2.06,5.42-3.62
	c1.56-1.56,2.78-3.39,3.62-5.42c0.84-2.03,1.27-4.18,1.27-6.38C33.4,17.22,32.97,15.07,32.13,13.04z"/>
</svg>
